<?xml version="1.0" encoding="UTF-8"?>
<svg xmlns="http://www.w3.org/2000/svg" xmlns:xlink="http://www.w3.org/1999/xlink" width="95px" height="51px" viewBox="0 0 95 51" version="1.1">
<g id="surface1">
<path style=" stroke:none;fill-rule:nonzero;fill:rgb(0%,0%,0%);fill-opacity:1;" d="M 26.132812 51 C 22.410156 51 18.960938 50.371094 15.789062 49.117188 C 12.617188 47.816406 9.835938 46.03125 7.445312 43.753906 C 5.101562 41.433594 3.261719 38.714844 1.929688 35.601562 C 0.644531 32.492188 0 29.121094 0 25.5 C 0 21.832031 0.644531 18.464844 1.929688 15.398438 C 3.261719 12.285156 5.101562 9.589844 7.445312 7.316406 C 9.835938 5.039062 12.59375 3.25 15.71875 1.949219 C 18.890625 0.648438 22.316406 0 25.996094 0 C 29.855469 0 33.324219 0.628906 36.40625 1.882812 C 39.484375 3.089844 42.199219 4.785156 44.542969 6.96875 L 36.269531 15.328125 C 35.117188 14.027344 33.695312 13.003906 31.992188 12.261719 C 30.292969 11.519531 28.292969 11.148438 25.996094 11.148438 C 24.019531 11.148438 22.203125 11.472656 20.546875 12.121094 C 18.9375 12.773438 17.535156 13.75 16.339844 15.050781 C 15.144531 16.304688 14.203125 17.8125 13.515625 19.578125 C 12.871094 21.34375 12.550781 23.316406 12.550781 25.5 C 12.550781 27.683594 12.871094 29.65625 13.515625 31.421875 C 14.203125 33.1875 15.144531 34.71875 16.339844 36.019531 C 17.535156 37.273438 18.9375 38.25 20.546875 38.945312 C 22.203125 39.597656 24.019531 39.921875 25.996094 39.921875 C 28.292969 39.921875 30.316406 39.574219 32.0625 38.878906 C 33.808594 38.132812 35.300781 37.089844 36.542969 35.742188 L 44.816406 44.101562 C 42.425781 46.285156 39.714844 47.980469 36.679688 49.1875 C 33.695312 50.394531 30.175781 51 26.132812 51 Z M 26.132812 51 "/>
<path style=" stroke:none;fill-rule:nonzero;fill:rgb(0%,0%,0%);fill-opacity:1;" d="M 45.355469 50.234375 L 64.316406 0.835938 L 76.246094 0.835938 L 95 50.234375 L 82.105469 50.234375 L 67.972656 8.710938 L 72.453125 8.710938 L 57.972656 50.234375 Z M 45.355469 50.234375 "/>
</g>
</svg>
